# xmcd
#
# Track frame offsets:
#	150
#	10182
#	22236
#	39349
#	55982
#	67235
#	80778
#	99592
#	116344
#	128118
#	138182
#	148085
#	160090
#	169038
#
# Disc length: 2283 seconds
#
# Revision: 0
# Processed by: cddbd v1.5.1PL0 Copyright (c) Steve Scherf et al.
# Submitted via: EasyCDDAExtractor 7.5.2.1
#
DISCID=c108e90e
DTITLE=Teddy Nelson - Diggy Liggy
DYEAR=1976
DGENRE=Country
TTITLE0=Diggy Liggy
TTITLE1=Bonde ifrå Hamlagrø
TTITLE2=Langs norskekysten
TTITLE3=Dagen derpå
TTITLE4=Norway Jon
TTITLE5=Dans dans
TTITLE6=Jeg og Dag
TTITLE7=Unnskyld
TTITLE8=Deng meg, heng meg
TTITLE9=O'boy
TTITLE10=Midt i Minnesota
TTITLE11=Kom bli med på landet
TTITLE12=Onkel Mons
TTITLE13=Takk for oss
EXTD=
EXTT0=
EXTT1=
EXTT2=
EXTT3=
EXTT4=
EXTT5=
EXTT6=
EXTT7=
EXTT8=
EXTT9=
EXTT10=
EXTT11=
EXTT12=
EXTT13=
PLAYORDER=
